<svg xmlns="http://www.w3.org/2000/svg" width="419" height="107" fill="none" class="w-[90px] md:w-[150px] h-[40px] hidden ltr:md:block" data-testid="tradeling-header-logo"><path fill="#fff" d="M108.785 90.618c1.688.887 2.803 2.517 2.803 4.662 0 3.318-2.688 5.72-6.006 5.72h-8.58V80.98h7.951c3.232 0 5.863 2.345 5.863 5.548 0 1.745-.772 3.175-2.031 4.09Zm-3.832-6.55h-4.662v5.263h4.662c1.458 0 2.574-1.144 2.574-2.631 0-1.487-1.116-2.631-2.574-2.631Zm.629 13.843c1.544 0 2.717-1.23 2.717-2.803s-1.173-2.802-2.717-2.802h-5.291v5.605h5.291ZM124.175 86.7h3.089V101h-3.089v-1.83c-.943 1.487-2.488 2.202-4.433 2.202-3.203 0-5.491-2.174-5.491-5.892V86.7h3.089v8.466c0 2.173 1.258 3.317 3.203 3.317 2.031 0 3.632-1.201 3.632-4.118V86.7ZM140.514 86.7h3.289l-5.491 14.758c-1.344 3.632-3.689 5.462-6.978 5.262v-2.889c2.002.115 3.088-.915 3.803-2.802l.143-.286-6.063-14.043h3.375l4.261 10.382 3.661-10.382ZM172.247 80.98V101h-3.289V86.729l-6.092 10.067h-.4L156.374 86.7V101h-3.289V80.98h3.546l6.035 10.01 6.063-10.01h3.518ZM182.788 101.372c-4.176 0-7.551-3.29-7.551-7.522 0-4.261 3.375-7.522 7.551-7.522 4.204 0 7.55 3.26 7.55 7.522 0 4.233-3.346 7.522-7.55 7.522Zm0-3.003c2.517 0 4.461-1.916 4.461-4.519s-1.944-4.519-4.461-4.519c-2.517 0-4.462 1.916-4.462 4.519s1.945 4.519 4.462 4.519ZM196.22 89.102c.858-1.944 2.603-2.66 4.404-2.66v3.347c-2.03-.143-4.404.8-4.404 4.004V101h-3.089V86.7h3.089v2.402ZM204.667 95.166c.487 2.23 2.288 3.374 4.576 3.374 1.716 0 3.003-.772 3.69-1.773l2.545 1.487c-1.315 1.945-3.46 3.118-6.263 3.118-4.719 0-7.779-3.232-7.779-7.522 0-4.233 3.06-7.522 7.55-7.522 4.261 0 7.179 3.432 7.179 7.55 0 .43-.058.887-.115 1.288h-11.383Zm-.028-2.517h8.408c-.429-2.46-2.231-3.518-4.09-3.518-2.316 0-3.889 1.373-4.318 3.518ZM222.027 97.568l-2.002 7.436h-2.574l1.144-7.436h3.432ZM239.32 101.372c-3.947 0-6.664-1.945-7.722-4.92l2.832-1.658c.715 2.03 2.259 3.375 4.976 3.375 2.603 0 3.718-1.173 3.718-2.632 0-1.773-1.573-2.373-4.547-3.289-3.118-.943-6.149-2.087-6.149-5.863 0-3.689 3.06-5.777 6.435-5.777 3.289 0 5.72 1.745 6.978 4.405l-2.774 1.601c-.715-1.601-1.974-2.803-4.204-2.803-1.917 0-3.146.973-3.146 2.489 0 1.544 1.115 2.202 4.032 3.117 3.318 1.058 6.664 2.088 6.664 6.063 0 3.661-2.917 5.892-7.093 5.892ZM260.763 86.7h3.089V101h-3.089v-2.06c-1.087 1.517-2.774 2.432-5.005 2.432-3.89 0-7.121-3.29-7.121-7.522 0-4.261 3.231-7.522 7.121-7.522 2.231 0 3.918.915 5.005 2.403V86.7Zm-4.519 11.726c2.574 0 4.519-1.916 4.519-4.576 0-2.66-1.945-4.576-4.519-4.576s-4.519 1.916-4.519 4.576c0 2.66 1.945 4.576 4.519 4.576ZM277.148 86.7h3.374l-5.577 14.3h-3.575l-5.577-14.3h3.375l4.004 10.868 3.976-10.868ZM284.351 95.166c.486 2.23 2.288 3.374 4.576 3.374 1.716 0 3.003-.772 3.689-1.773l2.546 1.487c-1.316 1.945-3.461 3.118-6.264 3.118-4.719 0-7.779-3.232-7.779-7.522 0-4.233 3.06-7.522 7.55-7.522 4.262 0 7.179 3.432 7.179 7.55 0 .43-.057.887-.114 1.288h-11.383Zm-.029-2.517h8.409c-.429-2.46-2.231-3.518-4.09-3.518-2.317 0-3.89 1.373-4.319 3.518ZM325.078 80.98V101h-3.289V86.729l-6.092 10.067h-.4L309.205 86.7V101h-3.289V80.98h3.546l6.035 10.01 6.063-10.01h3.518ZM335.619 101.372c-4.175 0-7.55-3.29-7.55-7.522 0-4.261 3.375-7.522 7.55-7.522 4.204 0 7.551 3.26 7.551 7.522 0 4.233-3.347 7.522-7.551 7.522Zm0-3.003c2.517 0 4.462-1.916 4.462-4.519s-1.945-4.519-4.462-4.519c-2.517 0-4.461 1.916-4.461 4.519s1.944 4.519 4.461 4.519ZM349.051 89.102c.858-1.944 2.603-2.66 4.405-2.66v3.347c-2.031-.143-4.405.8-4.405 4.004V101h-3.088V86.7h3.088v2.402ZM357.499 95.166c.486 2.23 2.288 3.374 4.576 3.374 1.716 0 3.003-.772 3.689-1.773l2.545 1.487c-1.315 1.945-3.46 3.118-6.263 3.118-4.719 0-7.779-3.232-7.779-7.522 0-4.233 3.06-7.522 7.55-7.522 4.262 0 7.179 3.432 7.179 7.55 0 .43-.057.887-.115 1.288h-11.382Zm-.029-2.517h8.408c-.429-2.46-2.23-3.518-4.089-3.518-2.317 0-3.89 1.373-4.319 3.518ZM108.11 10.674H97.144V21.64h10.966V10.674ZM108.032 38.093v17.603c0 4.567 3.301 4.655 9.558 4.31v9.904c-15.311 1.69-20.47-2.797-20.47-14.214V38.093h-7.364V27.596h27.834v10.497h-9.558ZM147.707 26.755v12.187c-5.664-.672-12.86 1.859-12.86 10.745V69.91h-10.912V27.605h10.912v7.275c2.195-5.762 7.532-8.125 12.86-8.125ZM184.303 48.748c0-7.106-4.991-11.93-11.762-11.93-6.682 0-11.673 4.824-11.673 11.93 0 7.107 4.991 11.93 11.673 11.93 6.78 0 11.762-4.823 11.762-11.93Zm10.922-21.152v42.305h-10.913v-4.992c-3.044 3.806-7.611 6.178-13.789 6.178-11.249 0-20.559-9.736-20.559-22.339 0-12.602 9.31-22.338 20.559-22.338 6.178 0 10.745 2.372 13.789 6.178v-4.992h10.913ZM233.679 48.749c0-7.107-4.991-11.93-11.673-11.93-6.771 0-11.762 4.823-11.762 11.93 0 7.106 4.991 11.93 11.762 11.93 6.682 0 11.673-4.824 11.673-11.93Zm10.922-38.075v59.227h-10.913V64.91c-3.044 3.895-7.531 6.178-13.7 6.178-11.338 0-20.648-9.727-20.648-22.338 0-12.612 9.31-22.339 20.648-22.339 6.177 0 10.656 2.284 13.7 6.178V10.674h10.913ZM281.224 44.775c-1.354-6.09-5.921-8.541-10.488-8.541-5.841 0-9.815 3.133-11.081 8.54h21.569Zm-9.479 16.408c4.23 0 7.62-1.779 9.479-4.23l8.797 5.08c-3.974 5.753-10.32 9.054-18.444 9.054-14.214 0-23.18-9.727-23.18-22.339 0-12.602 9.054-22.338 22.339-22.338 12.523 0 21.4 9.904 21.4 22.338 0 1.611-.168 3.045-.425 4.488h-31.897c1.532 5.584 6.178 7.947 11.931 7.947Z"/><path fill="#F95000" d="M306.899 10.674h-10.912v59.227h10.912V10.674ZM369.17 43.925V69.9h-10.912V45.279c0-5.753-3.47-8.718-8.382-8.718-5.328 0-9.301 3.133-9.301 10.488v22.843h-10.913V27.587h10.913v4.735c2.54-3.806 6.938-5.92 12.603-5.92 8.965.008 15.992 6.274 15.992 17.523ZM407.883 48.076c0-6.682-4.991-11.506-11.841-11.506-6.851 0-11.842 4.824-11.842 11.506 0 6.77 4.991 11.594 11.842 11.594 6.85-.009 11.841-4.833 11.841-11.594Zm10.656-20.48v40.27c0 13.877-10.912 20.134-22.081 20.134-9.054 0-16.329-3.47-20.055-10.32l9.31-5.328c1.779 3.302 4.567 5.921 11.081 5.921 6.85 0 11.081-3.726 11.081-10.408V63.3c-2.965 3.973-7.532 6.425-13.533 6.425-12.019 0-21.064-9.727-21.064-21.657 0-11.842 9.054-21.657 21.064-21.657 6.01 0 10.577 2.452 13.533 6.434v-5.248h10.664ZM312.768 16.64c.008-3.213 2.708-5.975 5.929-5.966 3.293.01 5.974 2.788 5.966 6-.009 3.213-2.709 5.904-6.001 5.886-3.222 0-5.903-2.7-5.894-5.92ZM313.219 27.574l-.133 42.305 10.913.034.133-42.304-10.913-.035ZM59.221 79.318c-11.151 0-20.188-9.045-20.188-20.188 0-11.151 9.036-20.188 20.188-20.188S79.409 47.98 79.409 59.13c0 11.143-9.037 20.188-20.188 20.188Z"/><path fill="#fff" d="M26.447 0 0 26.447l26.447 26.447 26.447-26.447L26.447 0Z"/></svg>